<svg xmlns="http://www.w3.org/2000/svg" width="1600" height="1100" viewBox="0 0 1600 1100">
  <defs>
    <linearGradient id="g" x1="0" y1="0" x2="1" y2="1">
      <stop offset="0" stop-color="#17100d"/>
      <stop offset="0.58" stop-color="#3B2A1E"/>
      <stop offset="1" stop-color="#2b1d11"/>
    </linearGradient>
    <radialGradient id="r" cx="72%" cy="28%" r="55%">
      <stop offset="0" stop-color="#F0C879" stop-opacity="0.78"/>
      <stop offset="1" stop-color="#F0C879" stop-opacity="0"/>
    </radialGradient>
    <radialGradient id="b" cx="18%" cy="25%" r="46%">
      <stop offset="0" stop-color="#B56B45" stop-opacity="0.70"/>
      <stop offset="1" stop-color="#B56B45" stop-opacity="0"/>
    </radialGradient>
    <filter id="blur"><feGaussianBlur stdDeviation="22"/></filter>
  </defs>
  <rect width="1600" height="1100" fill="url(#g)"/>
  <rect width="1600" height="1100" fill="url(#r)"/>
  <rect width="1600" height="1100" fill="url(#b)"/>
  <g opacity="0.34" filter="url(#blur)">
    <circle cx="280" cy="815" r="250" fill="#B56B45"/>
    <circle cx="1250" cy="270" r="220" fill="#F0C879"/>
  </g>
  <g>
        <rect x="170" y="460" width="230" height="340" rx="20" fill="#ffffff" opacity=".27"/>
        <path d="M150 460 L285 340 L420 460 Z" fill="#ffffff" opacity=".24"/>
        <rect x="520" y="410" width="250" height="390" rx="18" fill="#ffffff" opacity=".23"/>
        <path d="M510 410 L645 300 L790 410 Z" fill="#ffffff" opacity=".22"/>
        <rect x="930" y="490" width="300" height="310" rx="22" fill="#ffffff" opacity=".20"/>
        </g>
  <g opacity=".32">
    <line x1="120" y1="880" x2="1450" y2="880" stroke="#ffffff" stroke-width="4"/>
    <line x1="180" y1="930" x2="1320" y2="930" stroke="#F0C879" stroke-width="3"/>
  </g>
  <text x="76" y="960" fill="#F7F3EA" opacity="0.85" font-family="Arial" font-size="58" letter-spacing="8">NEVE TZEDEK</text>
  <text x="82" y="1025" fill="#F7F3EA" opacity="0.58" font-family="Arial" font-size="28" letter-spacing="4">QUIET LUXURY / HERITAGE</text>
</svg>