<svg xmlns="http://www.w3.org/2000/svg" width="1600" height="1100" viewBox="0 0 1600 1100">
  <defs>
    <linearGradient id="g" x1="0" y1="0" x2="1" y2="1">
      <stop offset="0" stop-color="#17100d"/>
      <stop offset="0.55" stop-color="#3B2A1E"/>
      <stop offset="1" stop-color="#2b1d11"/>
    </linearGradient>
    <radialGradient id="r" cx="72%" cy="28%" r="55%">
      <stop offset="0" stop-color="#F0C879" stop-opacity="0.78"/>
      <stop offset="1" stop-color="#F0C879" stop-opacity="0"/>
    </radialGradient>
    <radialGradient id="b" cx="18%" cy="25%" r="46%">
      <stop offset="0" stop-color="#B56B45" stop-opacity="0.70"/>
      <stop offset="1" stop-color="#B56B45" stop-opacity="0"/>
    </radialGradient>
    <filter id="blur"><feGaussianBlur stdDeviation="20"/></filter>
  </defs>
  <rect width="1600" height="1100" fill="url(#g)"/>
  <rect width="1600" height="1100" fill="url(#r)"/>
  <rect width="1600" height="1100" fill="url(#b)"/>
  <g opacity="0.34" filter="url(#blur)">
    <circle cx="300" cy="820" r="260" fill="#B56B45"/>
    <circle cx="1250" cy="280" r="210" fill="#F0C879"/>
  </g>
  <g opacity="0.30">
    <rect x="170" y="420" width="170" height="470" fill="#ffffff"/>
    <rect x="390" y="280" width="220" height="610" fill="#ffffff"/>
    <rect x="670" y="360" width="165" height="530" fill="#ffffff"/>
    <rect x="900" y="190" width="250" height="700" fill="#ffffff"/>
    <rect x="1210" y="460" width="180" height="430" fill="#ffffff"/>
  </g>
  <path d="M0 840 C260 720 420 920 690 790 C930 675 1140 710 1600 560 L1600 1100 L0 1100 Z" fill="#B56B45" opacity="0.16"/>
  <text x="80" y="1020" fill="#F7F3EA" opacity="0.62" font-family="Arial" font-size="42" letter-spacing="8">NEVE TZEDEK</text>
</svg>