<svg xmlns="http://www.w3.org/2000/svg" width="1600" height="1100" viewBox="0 0 1600 1100">
<defs>
<linearGradient id="bg" x1="0" y1="0" x2="1" y2="1">
<stop offset="0%" stop-color="#0A1622"/>
<stop offset="100%" stop-color="#05070A"/>
</linearGradient>
<radialGradient id="glow" cx="70%" cy="20%" r="60%">
<stop offset="0%" stop-color="#D8B46A" stop-opacity="0.8"/>
<stop offset="100%" stop-color="#D8B46A" stop-opacity="0"/>
</radialGradient>
<filter id="blur"><feGaussianBlur stdDeviation="18"/></filter>
</defs>

<rect width="1600" height="1100" fill="url(#bg)"/>
<rect width="1600" height="1100" fill="url(#glow)"/>

<g opacity="0.28" filter="url(#blur)">
<circle cx="260" cy="780" r="220" fill="#66B7C9"/>
<circle cx="1250" cy="240" r="240" fill="#ffffff"/>
</g>

<g opacity="0.22">
<rect x="120" y="420" width="180" height="420" rx="12" fill="#ffffff"/>
<rect x="340" y="260" width="250" height="580" rx="18" fill="#ffffff"/>
<rect x="660" y="350" width="190" height="490" rx="16" fill="#ffffff"/>
<rect x="930" y="180" width="290" height="660" rx="22" fill="#ffffff"/>
<rect x="1280" y="420" width="170" height="420" rx="12" fill="#ffffff"/>
</g>

<path d="M0 770 C240 680 420 840 690 740 C930 650 1120 700 1600 520 L1600 1100 L0 1100 Z"
fill="#66B7C9" opacity="0.14"/>

<text x="90" y="930" fill="#F5F1E8" font-size="64" font-family="Arial" letter-spacing="8">ROTHSCHILD & LEV TLV</text>
<text x="92" y="990" fill="#F5F1E8" opacity="0.7" font-size="28" font-family="Arial" letter-spacing="3">BAUHAUS / CULTURE / CITY ENERGY</text>
<text x="92" y="1045" fill="#F5F1E8" opacity="0.38" font-size="20" font-family="Arial">The heart of Tel Aviv with architecture, nightlife and business.</text>
</svg>